<?xml version="1.0" standalone="no"?>
<!DOCTYPE svg PUBLIC "-//W3C//DTD SVG 20010904//EN"
 "http://www.w3.org/TR/2001/REC-SVG-20010904/DTD/svg10.dtd">
<svg version="1.0" xmlns="http://www.w3.org/2000/svg"
 width="150.000000pt" height="150.000000pt" viewBox="0 0 150.000000 150.000000"
 preserveAspectRatio="xMidYMid meet">
<metadata>
Created by potrace 1.11, written by Peter Selinger 2001-2013
</metadata>
<g transform="translate(0.000000,150.000000) scale(0.100000,-0.100000)"
fill="#000000" stroke="none">
<path d="M365 1050 c-22 -35 -204 -585 -197 -592 5 -5 31 -8 58 -6 l49 3 22
65 22 65 117 0 117 0 22 -65 22 -65 56 -3 c41 -2 59 1 62 10 5 12 -172 535
-196 579 -8 16 -21 19 -79 19 -38 0 -72 -4 -75 -10z m115 -236 c22 -65 40
-122 40 -126 0 -4 -38 -8 -85 -8 -47 0 -85 3 -85 7 0 16 82 254 86 250 3 -2
22 -57 44 -123z"/>
<path d="M923 1054 c-10 -4 -13 -46 -13 -160 l0 -154 -75 0 -75 0 0 -40 0 -40
75 0 74 0 3 -102 3 -103 34 -3 c19 -2 44 -1 57 2 23 6 24 10 24 106 l0 100
165 0 165 0 0 40 0 40 -40 0 -40 0 16 25 c9 14 18 53 21 88 6 83 -22 141 -87
177 -40 22 -58 25 -170 27 -69 1 -131 0 -137 -3z m226 -109 c34 -17 41 -33 41
-87 0 -30 -7 -46 -29 -69 -25 -24 -37 -29 -80 -29 l-51 0 0 100 0 100 45 0
c26 0 59 -7 74 -15z"/>
</g>
</svg>
