<svg version="1.0" xmlns="http://www.w3.org/2000/svg" width="200" height="200" viewBox="0 0 150 150"><path d="M36.5 45c-2.2 3.5-20.4 58.5-19.7 59.2.5.5 3.1.8 5.8.6l4.9-.3 2.2-6.5 2.2-6.5h23.4l2.2 6.5 2.2 6.5 5.6.3c4.1.2 5.9-.1 6.2-1 .5-1.2-17.2-53.5-19.6-57.9-.8-1.6-2.1-1.9-7.9-1.9-3.8 0-7.2.4-7.5 1zM48 68.6c2.2 6.5 4 12.2 4 12.6 0 .4-3.8.8-8.5.8s-8.5-.3-8.5-.7c0-1.6 8.2-25.4 8.6-25 .3.2 2.2 5.7 4.4 12.3zm44.3-24c-1 .4-1.3 4.6-1.3 16V76H76v8h14.9l.3 10.2.3 10.3 3.4.3c1.9.2 4.4.1 5.7-.2 2.3-.6 2.4-1 2.4-10.6V84h33v-8h-8l1.6-2.5c.9-1.4 1.8-5.3 2.1-8.8.6-8.3-2.2-14.1-8.7-17.7-4-2.2-5.8-2.5-17-2.7-6.9-.1-13.1 0-13.7.3zm22.6 10.9c3.4 1.7 4.1 3.3 4.1 8.7 0 3-.7 4.6-2.9 6.9-2.5 2.4-3.7 2.9-8 2.9H103V54h4.5c2.6 0 5.9.7 7.4 1.5z"/></svg>